<svg id="svg" version="1.1" xmlns="http://www.w3.org/2000/svg" xmlns:xlink="http://www.w3.org/1999/xlink" width="400" height="400" viewBox="0, 0, 400,400"><g id="svgg"><path id="path0" d="M146.644 10.246 C 85.926 30.761,36.011 91.484,33.816 147.501 C 33.360 159.119,33.090 159.375,21.285 159.375 C 5.341 159.375,1.851 167.874,4.275 200.808 C 7.183 240.342,10.425 243.707,45.282 243.380 C 70.037 243.148,70.318 243.235,78.094 253.567 C 112.459 299.224,129.709 305.898,127.190 272.562 C 125.340 248.080,117.374 234.375,104.993 234.375 C 102.775 234.375,96.481 232.140,91.006 229.409 C 83.757 225.793,75.112 224.810,59.201 225.793 C 30.140 227.588,27.741 225.534,27.086 198.291 L 26.563 176.563 43.750 175.000 C 69.816 172.630,87.833 175.506,91.870 182.681 C 119.123 231.116,187.475 198.489,166.832 146.898 C 152.882 112.032,103.000 113.039,90.197 148.444 C 84.022 165.521,67.155 164.877,69.571 147.656 C 74.347 113.621,101.745 73.597,129.925 59.488 C 134.951 56.971,142.600 52.540,146.923 49.641 C 160.409 40.596,201.643 36.745,229.688 41.913 C 276.790 50.591,330.296 108.846,331.117 152.344 C 331.342 164.226,313.635 162.282,310.966 150.131 C 302.200 110.219,242.133 112.707,231.166 153.436 C 218.548 200.298,278.197 226.453,305.714 186.124 C 312.795 175.747,313.633 175.433,336.964 174.449 C 377.665 172.732,376.195 171.797,373.773 197.854 C 371.282 224.660,368.885 226.650,340.584 225.404 C 296.911 223.480,275.371 238.725,272.747 273.412 L 270.924 297.522 278.431 293.292 C 294.569 284.199,309.925 270.639,318.967 257.497 L 328.425 243.750 353.481 243.750 C 386.967 243.750,389.216 242.208,393.891 216.046 C 397.298 196.985,396.967 164.675,393.328 161.036 C 392.598 160.306,386.284 159.372,379.297 158.960 C 367.106 158.240,366.577 157.771,366.185 147.326 C 364.971 115.042,322.431 37.500,305.934 37.500 C 304.456 37.500,295.608 32.614,286.271 26.641 C 249.536 3.142,188.783 -3.992,146.644 10.246 M246.875 27.938 C 299.113 42.393,340.603 88.852,348.540 141.780 C 349.755 149.886,349.472 156.250,347.895 156.250 C 346.347 156.250,344.856 153.086,344.583 149.219 C 341.199 101.362,296.571 46.277,252.388 35.420 C 211.582 25.392,186.493 25.017,156.973 33.992 C 151.356 35.699,146.434 37.022,146.036 36.930 C 121.069 31.174,62.810 97.606,57.460 137.930 C 56.342 146.365,54.016 154.137,52.292 155.203 C 42.893 161.011,61.130 102.134,75.507 80.252 C 105.442 34.691,184.292 10.621,246.875 27.938 M173.438 48.323 C 133.675 58.608,100.564 85.036,84.259 119.501 C 69.355 151.005,72.958 164.798,89.637 140.086 C 111.790 107.264,155.150 107.661,170.328 140.825 C 174.541 150.030,175.593 166.294,176.394 234.575 C 176.926 280.012,177.534 319.648,177.744 322.656 C 178.217 329.444,215.855 330.801,221.094 324.219 C 222.970 321.862,224.230 288.540,224.270 240.224 C 224.342 153.197,225.422 142.761,235.494 131.734 C 258.132 106.951,293.678 111.732,312.436 142.083 C 327.362 166.235,329.031 139.221,314.167 114.063 C 283.539 62.225,225.146 34.948,173.438 48.323 M148.876 138.239 C 180.560 159.949,149.740 209.829,115.562 192.155 C 104.360 186.362,99.375 177.572,99.375 163.612 C 99.375 136.542,126.276 122.753,148.876 138.239 M291.357 140.370 C 314.832 161.349,294.329 203.188,264.271 195.644 C 237.596 188.949,229.392 157.388,249.882 140.282 C 264.316 128.233,277.807 128.261,291.357 140.370 M37.872 180.435 C 30.828 181.720,30.526 182.712,32.211 199.037 C 34.464 220.860,33.256 220.026,61.794 219.480 C 122.093 218.326,133.474 235.349,134.192 327.769 C 134.465 362.947,135.404 392.887,136.279 394.302 C 139.044 398.777,262.481 397.489,264.066 392.969 C 264.819 390.820,266.047 359.531,266.795 323.438 C 267.543 287.344,268.523 255.826,268.973 253.397 C 269.956 248.094,294.002 224.211,296.173 226.382 C 297.011 227.220,300.610 226.346,304.170 224.441 C 307.731 222.535,322.389 220.632,336.745 220.211 C 367.589 219.307,364.926 221.104,367.470 199.466 L 369.515 182.066 352.385 179.925 C 329.265 177.037,321.722 179.474,305.414 195.100 C 295.825 204.287,287.751 209.035,279.354 210.422 C 259.049 213.776,254.673 212.877,243.728 203.105 C 228.883 189.852,228.245 192.448,228.691 264.369 C 229.153 338.856,231.512 333.236,200.069 332.559 C 168.243 331.874,171.220 338.814,171.664 266.328 C 172.058 202.197,170.980 191.685,164.563 197.072 C 145.622 212.974,145.445 213.049,130.433 211.438 C 114.138 209.689,97.198 200.681,87.848 188.795 C 81.737 181.026,57.163 176.915,37.872 180.435 " stroke="none" fill="#000000" fill-rule="evenodd"></path></g></svg>