<svg width="32" height="32" viewBox="0 0 32 32" fill="none" xmlns="http://www.w3.org/2000/svg"><path fill-rule="evenodd" clip-rule="evenodd" d="M0 16v16h32V0H0v16ZM.752.777C.744.799.74 4.922.745 9.939l.008 9.122 1.21.008 1.21.008.008 4.865.008 4.865.601.009.601.009v1.153H2.02l-.008-4.866-.008-4.866H.754v10.998h15.872l.008-1.852.008-1.852h1.219l-.008-1.21-.008-1.21h-2.47l-.008 2.429-.008 2.429h-3.591v-1.154l1.21-.008 1.21-.008v-3.687l-1.21-.008-1.21-.008v-1.153l3.038-.008 3.038-.008v-1.25l-.601-.009-.601-.009v-1.152l.601-.009.601-.009.009-.601.009-.601h1.153v7.246h2.436l.009.633.009.633h3.687l.009-.633.009-.633h1.152l.009.633.009.633h2.469l.009-.649.009-.649h-1.22v-4.778h2.373v1.153l-.601.009-.601.009v2.469l.601.009.601.009v3.59h-9.682l-.009-.601-.009-.601h-2.469v2.469H31.25V8.064h-1.251l-.008 1.21-.008 1.21h-1.154V6.895l1.21-.008 1.211-.008V.754H14.156v2.469h1.25l.009-.601.009-.601h1.152l.008 1.82.008 1.82.601.009.601.009v1.153h-2.37l-.008-1.21-.008-1.21h-1.252l-.009.601-.009.601h-2.37V4.461l.601-.009.601-.009V.754h-2.469l-.009.601-.009.601H9.332l-.009-.601-.009-.601L5.04.746C1.638.74.763.746.751.778ZM2.02 6.252v4.232h1.154l.008-3.647.008-3.647h3.688l.009.601.009.601h3.59V3.238l-1.21-.008-1.21-.008-.009-.601-.009-.601H2.02v4.232Zm15.84-3.656v.577l1.82.008 1.82.008.008 1.819.008 1.819 1.21.008 1.21.008v2.469h-1.25l-.009-.601-.009-.601h-1.153v2.373h3.591l.008-3.647.008-3.647h3.687l.008 1.21.008 1.21h1.154V2.02h-6.028l-.008 1.82-.008 1.82h-1.25l-.008-1.82-.008-1.82H17.86v.577ZM4.457 8.689v4.232h8.465v-1.154l-3.647-.008-3.647-.008-.008-3.647-.008-3.647H4.458v4.232Zm14.621 0v4.232h8.465V4.457h-1.154l-.008 3.647-.008 3.647h-6.124l-.008-3.647-.008-3.647h-1.154v4.232ZM6.894 8.08v2.405h2.373V9.332l-.601-.009-.601-.009V6.846h1.25l.009.6.009.6.6.009.6.009.008 1.21.008 1.21 3.038.008 3.038.008v1.25l-1.21.008-1.21.008-.008 1.21-.008 1.21-.601.009-.601.009v1.153h3.591v-1.153l-.601-.009-.601-.009v-1.251l1.21-.008 1.21-.008V9.332l-.601-.009-.601-.009-.009-.601-.009-.601h-1.151l-.009.601-.009.601h-3.688l-.008-1.21-.008-1.21-.601-.009-.601-.009-.009-.601-.009-.601h-3.59V8.08Zm6.092-.609v.577h1.154V6.894h-1.154v.577ZM2.02 13.563v1.796h4.81v-1.154l-1.82-.008-1.82-.008-.008-1.21-.008-1.21H2.02v1.796Zm26.798-.585-.008 1.21-.601.009-.601.009v4.807l.601.009.601.009v1.251h-2.469l-.008-3.038-.008-3.038h-3.59l-.008 1.21-.008 1.21h-1.251l-.008-1.21-.008-1.21h-3.59l-.008 1.21-.008 1.21-.6.009-.6.009-.009.6-.009.6h-1.251l-.009-.601-.009-.601-1.819-.008-1.819-.008-.008-1.21-.008-1.21H8.113l-.008 1.21-.008 1.21-2.429.008-2.429.008v1.154h6.027l.008-1.21.008-1.21h1.251l.008 1.21.008 1.21 1.819.008 1.819.008v3.687l-3.647.008-3.647.008v1.153l1.21.008 1.21.008.008 1.21.008 1.21h1.153l.008-1.21.008-1.21 2.429-.008 2.429-.008.008-1.82.008-1.819 1.21-.008 1.21-.008.009-.601.009-.601.601-.009.601-.009.008-1.21.008-1.21h1.251l.008 1.21.008 1.21h3.59l.008-1.21.008-1.21h1.25l.008 3.038.008 3.038h4.809v-3.59l-.601-.009-.601-.009v-2.466l.601-.009.601-.009v-3.589h-1.154l-.008 1.21ZM4.449 23.295l-.008 4.216h8.497l-.009-.561-.009-.561-3.646-.008-3.646-.008v-6.124l3.647-.008 3.647-.008v-1.154H4.457l-.008 4.216Zm15.848-.593v3.623h1.154v-7.247h-1.154v3.623Zm2.437-3.046v.577h1.154v-1.154h-1.154v.577Zm-.008 4.858-.008 2.998h1.186l-.008-2.998-.008-2.998h-1.153l-.008 2.998Zm2.445.016v1.796h1.154v-3.591h-1.154v1.796Zm-18.277 0v.577h1.154v-1.154H6.894v.577Zm-1.218 4.874v.577h4.81v-1.154H5.675v.577Z" fill="#B4682C"/></svg>