<svg xmlns="http://www.w3.org/2000/svg" xml:space="preserve" viewBox="0 0 79.4 7.8">
  <path fill="#b4682c" d="M64.1 7.7c-.2 0-.2-.2-.2-1.4V5h-3.8v1c0 1.3 0 1.3-.5 1.3-.3 0-.4 0-.4-1.3V4.8c-.1-.2-.1-.3.1-.6v-.1h5.2l.3.2.1.2-.1 1.7c0 1.6-.1 1.7-.7 1.5zm-31-.3a6.5 6.5 0 0 1-.3-.3V4.6c0-3.1 0-3.2.5-3.2 0 0 .2 0 .3-.2h.2l2.5-.1h2.5l.2.1c0 .1.1.2.3.2l.2.1V2l-.1 5.3c-.2.1-.9.2-4.3.2h-2zm3.4-.9h2.2V2.1H33.8v4.5H36.5zm-1.4-1v-.1L34.8 4v-.5l.2-.3.2-.3h1c1 0 1 0 1 .3.2.4 0 .5-.8.6-.7 0-.7 0-.7.7l-.1.8-.6.1zm7 1.8-1-.2v-3L41 2.8l.2-.2h.3l1.1-.1H44v-.5c0-.6 0-.6.4-.6.3 0 .5.1.5.5 0 .3 0 .7.2 1 0 .3 0 .2-.3.4l-.3.2H42v1h.2l1 .1c1.2 0 1 0 1.1 1l.1.8h.8c.8 0 1 .7.3 1h-3.3zm.9-.9h.5v-1H42v1h1zm31 .9c-.6-.2-.6-.2-.6-2 0-1.6 0-1.5.2-1.6h4.9V2h-.8c-2.2 0-2.2 0-2.1-.6v-.3h3.7v6.1H79c-.4 0-.4 0-.4-1.5V4.5H74.2v.7h.7c.7 0 .7 0 .8.5.2.5 0 1.2-.1 1.4-.2.2-1.2.3-1.7.2zm.8-1 .1-.1v-.1h-.6v.2h.5zm-72.4.9C2 7 2 7 2 6.7v-.2c-.4 0-.6-.1-.7-.4-.2-.3 0-.6.6-.6H2V5h-.4C1 4.7 1 4.7 1 4.2V4h1v-.7c0-.8 0-.8-.6-.8H1v.2c0 .7-.3 1.1-.6 1C0 3.5 0 3.3 0 2.5c0-.7.1-.7.3-1H2c3.4 0 3.3 0 3.3 1s0 1-.4 1-.5-.2-.5-.8v-.2H3v.6c0 .9 0 .9.6 1 .8 0 .9 0 .7.6V5h-.6c-.6 0-.7 0-.7.3 0 .2 0 .3.4.3.3 0 .6.3.6.6 0 0-.4.3-.8.3H3v.2c-.1.6-.3.7-.6.6zm14.6 0V4.5l1-.1h.7l.3-.1v-1h-4.1l-.2-.2-.3-.3v-.2c-.1-.2-.2-2 0-2.3.1-.3.3-.3.6-.1l.3.1v2h2c2.1 0 2 0 2.4.2.2.2.3.3.3 1.4v1l-.2.1c-.2.2-.3.2-1 .2h-1.1v2H17zm7.4 0c-.2 0-.2-2.6 0-2.7l.8-.1h.8l.3-.1v-1h-2l-2-.1c-.3 0-.6-.3-.6-.4V.3c.2-.3.3-.3.6-.1l.3.1v2h2c2.2 0 2 0 2.4.2.3.2.3.3.3 1.4v1l-.1.1c-.2.2-.4.2-1 .2H25V6a5 5 0 0 1-.1 1.3h-.6zm29.9 0V4.5l.9-.1h.8l.3-.1v-1h-4.1L52 3l-.3-.3v-.2c-.2-.2-.2-1.8-.1-2.2 0-.3.3-.4.7-.2l.2.1v2h2c2.2 0 2.1 0 2.4.2.3.2.3.3.3 1.4v1l-.1.1c-.2.2-.3.2-1 .2H55V6l-.1 1.2h-.6zm-47 0c-.2 0-.2 0-.2-2.4a34.8 34.8 0 0 0 0-3c.5-.2 3.4-.2 3.9 0v1.9h.8v-.8h.3c.5-.2.6 0 .6 1.6 0 1.2 0 1.1-.3 1.2-.4.2-.6 0-.6-.7v-.3H11v.8c0 1-.1 1.6-.2 1.7H7.3zm2.9-1.7v-.8h-.4c-.5 0-.5 0-.6-.4-.2-.4 0-.5.7-.6.3 0 .2 0 .3-.6v-.5H8v3.8h2.2zm58.6 1.7c-.2-.1-.2-.2-.2-.5v-.2h-.3c-.7-.1-.7-.8 0-1 .3 0 .2 0 .2-.3V5h-.3c-.7-.2-.7-.2-.7-.6 0-.3.2-.4.8-.4h.3V2.5h-1v.2c-.2.9-.3 1.1-.7 1-.4-.2-.4-.2-.3-1.5v-.4l.2-.1.2-.2h1.5c3.4 0 3.4 0 3.4 1s0 1-.4 1-.5-.1-.5-.7v-.3h-1.4v.7c0 .8 0 .8.5.8l.8.2-.1.7h-1.2v.5h.3c.3 0 .4.1.5.4.2.3 0 .5-.5.6-.3.1-.4.1-.4.3 0 .5-.3.6-.7.5zm-9.2-3.6c-.8 0-1-.3-.6-.8l2.2-.1c3.7 0 3.9 0 3.6.6l-.1.3h-5.1zM59 2 58.8 1V.5l.3-.2.2-.2.2.1c.3.3.3.3.3.7v.4h4.3V.9c0-.8.2-1 .7-.8.4 0 .3 1.8 0 2l-5.4.2h-.3v-.2zM19 1l-.2-.5V.3h.2c.5-.3.6-.2.6.3V1h-.1l-.3.1H19V1zm7.2 0c-.1-.3-.1-.7 0-.8.5-.2.7-.1.7.5V1h-.1l-.3.1h-.3zm30 0L56 .5V.3h.1c.5-.3.6-.2.7.3V1h-.2l-.3.1h-.2V1z"/>
</svg>
