<svg xmlns="http://www.w3.org/2000/svg" xml:space="preserve" viewBox="0 0 529.2 51.8">
  <path d="M427.4 51.2c-1.1-.4-1.2-.9-1.3-9.4v-8h-25.4v6.6c-.2 8.8-.3 9-3.7 8.8-2-.1-2-.2-2.4-8.8-.1-3.8-.4-7.5-.5-8.3-.3-1.5-.2-2 1.2-4l.6-1h34.4l1.4 1.3c1 1 1.3 1.3 1.2 1.8-.5 1.5-.7 4.2-1 11.3-.3 10.4-.7 11.3-4.5 9.7zm-207.3-1.8a43.5 43.5 0 0 1-1.3-1.9l-.7-1 .3-15.9c.4-20.8.4-21 3.5-21.4.6 0 1.7-.5 2.4-1l1.4-.8h16.6l16.6-.2.9 1a4 4 0 0 0 2 1.5l1.2.3.2 3.7c.6 10.9.2 33.7-.6 34.6-1 1.2-5.8 1.5-28.3 1.8l-13.5.2zm23.3-5.7 14.3-.2V28.8l.1-14.7h-11.7l-16.4.2-4.7.2v29.7l2-.2c1.2-.1 8.5-.3 16.4-.3zM234 36l-.7-.2c-.3-.3-.7-4.9-.8-9v-3.7l1.4-1.8 1.3-1.9 6.1.2c7.3.2 7.2.1 7.6 1.5.8 3.2-.1 3.9-6 4.2-4.5.2-4-.3-4.3 4.7-.1 4.6-.2 5.1-1 5.5-.6.3-3 .7-3.6.5zm47.1 13c-3.1-.3-6-1-6.6-1.5-.6-.5-.9-4.8-1.2-19.8l-.1-10 1.7-.8 1.7-.8 7.5-.2 8.4-.2h.7l.2-3.1c.2-3.7.4-4 2.2-4 2.5.1 3.3 1 3.3 3.5 0 1.6.7 4.7 1.4 6.4.8 1.9.9 1.8-1.9 3.1l-1.7.8h-8.5l-8.6.2v7l1.3.1c.8.1 3.6.3 6.4.3 8.5.3 7.7-.4 8.2 6.6l.5 5.2c.2.3 2.8.5 5.4.5 5.2 0 6.8 4.4 2 5.8-3.1.9-16.6 1.4-22.3.9zm5.2-6.3 3.7-.2v-7h-10.4v7.7l1.5-.2 5.2-.3zm207 5.8c-4-1-4-.9-4-13 0-10.5 0-10.5 1.3-10.7.6-.2 23.4-.7 32.4-.7h.6v-9.9l-5.5-.2c-14.8-.4-15-.4-14.2-4.2l.5-2h4.2c6.7 0 18.8.5 19.7.7l.8.3-.1 19.6c0 10.8-.2 19.7-.2 19.8l-2 .1c-3.2 0-3 .5-3.2-9.4 0-4.6-.2-8.5-.3-8.7a93 93 0 0 0-14.2-.3h-14v4.8h4.5c5.2.2 5.1.1 5.8 3 .9 3.8.4 8.6-1 9.7a23 23 0 0 1-11 1zm5.3-6.3c.5-.1.6-.3.6-.9v-.7h-4v.7c0 .5 0 .8.4.9a9 9 0 0 0 3 0zm-483 5.7c-1.7-.7-1.9-.9-2-3-.2-1.7-.2-1.8-.9-1.8-2 0-3.2-.8-4.4-2.6-1-2 .6-3.5 4.2-4.1l1-.2V33l-2.8-.2c-4.5-.5-5-1-4.1-4.1l.5-1.9h2.4l3.2-.1.8-.2V22c0-5.6.2-5.3-4-5.3H6.4v1.6c0 4.4-1.9 7.2-4 6C0 23.2-.3 22.2.2 16.7c.4-4.5.5-4.8 2-6l1-.8h10c23 0 22.2-.2 22.2 6.5 0 6.6-.2 7.1-2.5 7.1-2.6 0-3.3-1.1-3.3-5v-1.7h-9.7v3.7c0 6.2-.1 6 3.9 6.5 5.5.6 5.9 1 4.9 4.6l-.5 1.5h-3.4c-4.3 0-4.7.1-4.8 1.8-.1 1.4.3 1.7 2.5 1.7 2 0 4.2 2 4 3.9-.1.7-2.8 2.1-4.8 2.6l-1.6.3-.2 1c-.6 3.4-1.9 4.5-4.2 3.6zm97.9.2c-.8-.6-.9-17.6 0-18.4.2-.3 2.4-.5 5.8-.7 2 0 4.4-.2 5.4-.3l1.9-.1v-7l-13.7-.1-13.6-.1-1.3-.7c-1.2-.8-2-1.8-1.9-2.3.1-.2 0-.7-.4-1.2a49 49 0 0 1 0-15c1.1-2 2.2-2.3 4.5-.8l1.5 1v12.5H115c14.6.2 14.1.1 16.2 1.7 1.8 1.3 2 2.2 2 9.5l.1 6.5-1 .8c-1.3 1.1-2 1.3-6.8 1.5l-5.6.2-1.6.2v4.9c0 5.1-.2 7.3-.7 7.8-.5.5-3.4.6-4 .1zm48.9.2a62 62 0 0 1-.2-18.5c.4-.4 2.3-.6 5.8-.8 2 0 4.5-.2 5.5-.3l1.9-.1v-7h-13.2c-8.7 0-13.5-.2-14.1-.4-1.5-.4-3.2-1.8-3.2-2.6 0-.4-.2-1-.5-1.3-.8-1.2-.6-14.1.2-15.4 1-1.8 2-1.9 4.3-.5l1.6.9v12.6h13.2c14.6.2 14.1.1 16.2 1.7 1.7 1.3 2 2.2 2 9.5l.1 6.5-1 .8c-1.4 1.1-2.2 1.3-6.7 1.5l-5.7.2-1.6.2V39c0 4.7-.3 8.6-.7 9-.3.3-3.2.5-4 .3zm199.4-.2c-.8-.6-.8-17.6 0-18.4.3-.3 2.4-.5 5.9-.7 2 0 4.4-.2 5.4-.3l1.8-.1v-7l-13.7-.1-13.6-.1-1.2-.7c-1.3-.8-2.1-1.8-2-2.3a61.7 61.7 0 0 1-.8-15.5c.6-2.5 2.5-3 5-1.5l1.4 1v12.5h13.3c14.5.2 14 .1 16.1 1.7 1.8 1.3 2 2.2 2 9.5l.2 6.5-1 .8c-1.4 1.1-2.1 1.3-6.8 1.5l-5.7.2-1.6.2V40c0 5.2-.2 7.5-.7 8-.5.5-3.4.6-4 .1zm-313 0c-1.4-.4-1.4-.3-1.6-15.8a252 252 0 0 0-.4-15.1 42 42 0 0 0-.8-2.5c-.7-1.8-.6-2 1.4-2.8a85 85 0 0 1 25.6 0l.7.3v12.4h4.6v-1.4l.2-2.6.2-1.2 1.6-.5c3.7-1 4.1.2 4.2 11.3 0 7.5 0 7.3-1.8 8.1-2.8 1.3-3.9.1-4.4-5.1l-.1-1.9H76l-2.2-.2-.2 5.3a56 56 0 0 1-1 11.4c-.2.3-22.5.5-23.7.2zM68 37v-5.7l-2.6-.1C62 31 61.9 30.9 61 29c-1.3-2.8-.3-3.6 5.1-4.3 1.5-.2 1.4 0 1.6-4l.2-3.3H53.2v25.2H68zm390.8 10.7c-1.2-.6-1.5-1-1.7-3l-.2-1.5-1.3-.2c-4.8-.5-5-5.1-.3-6.4 1.8-.4 1.7-.3 1.7-2V33l-2.6-.3c-4.2-.5-4.5-.8-4.2-3.5.2-2.1 1.3-2.7 5.3-2.7h1.7v-10h-6.8L450 18c-.7 5.9-1.7 7.4-4 6.4-2.5-1.2-2.5-1.3-2.2-10l.1-2.2 1.3-1.2 1.3-1.2H457c22.4 0 22 0 22 6.3.1 6.8-.2 7.6-2.6 7.4-2.7-.3-3-.9-3-4.6v-2.2h-9.7v4.5c0 5.6-.2 5.2 4 5.8 3.6.4 4.8.8 5 1.3.2.3-.5 4-.8 4.5 0 0-1.9.2-4.1.2h-4v3.2l2 .2c2.4.2 3 .5 3.8 2.2 1 2 0 3.3-3.8 4.2-2 .5-2.2.7-2.4 2.1-.5 2.9-2.3 3.9-4.7 2.8zm-61.5-23.9c-5.1-.3-6.4-2-4-5.1l.6-.6H408c24.6-.2 25.8 0 24 4.1-.3.8-.7 1.4-1 1.5-.8.2-30 .3-33.9.1zm-3.8-9.5c-.8-1.4-1-3.5-1.1-8v-3l1.5-1.5 1.5-1.4 1.3 1c2 1.6 2.1 2 2.2 4.7l.2 2.4h28.6V5.8c0-5.1 1.2-6.6 4.4-5.4 2.3.9 1.8 12.4-.6 13.6-1.3.7-19.5 1.4-35 1.4H394l-.7-1.1zM126.1 6.6c-.3-.7-.5-2-.6-3l-.2-1.7 1.1-.4c3.4-1.5 4.2-1 4.3 2.7v2.5l-1 .3a492.4 492.4 0 0 0-3 .8c-.2 0-.4-.6-.7-1.2zm48.7.1c-.8-2-.8-4.6 0-5 3.4-1.8 4.7-1 4.7 2.9v2.2l-1 .2-2 .5c-1.2.4-1.2.4-1.7-.8zm199.6-.1-.6-3-.1-1.7 1-.4c3.4-1.5 4.2-1 4.3 2.7l.1 2.5-1 .3a492.4 492.4 0 0 0-3.1.8l-.6-1.2z"/>
</svg>
