<svg xmlns="http://www.w3.org/2000/svg" viewBox="0 0 32 32">
  <path fill="#b4682c" fill-rule="evenodd" d="M11.7.6c-5 1.7-9 6.6-9.2 11.1 0 1-.1 1-1 1-1.4 0-1.6.7-1.4 3.4.2 3.2.5 3.4 3.3 3.4 2 0 2 0 2.7.8 2.8 3.8 4.2 4.3 4 1.6-.2-2-.8-3.1-1.8-3.1L7 18.4c-.6-.3-1.3-.4-2.6-.3-2.3.1-2.5 0-2.6-2.2V14l1.4-.1c2.1-.2 3.6 0 3.9.6 2.2 4 7.8 1.3 6.1-3-1.1-2.7-5.2-2.7-6.2.2-.5 1.4-2 1.3-1.7 0 .4-2.8 2.6-6 4.9-7.2l1.4-.8c1-.7 4.4-1 6.7-.6 3.9.7 8.2 5.4 8.3 9 0 .9-1.4.7-1.7-.2-.7-3.3-5.6-3-6.5.2-1 3.8 3.9 6 6.1 2.7.6-.9.7-.9 2.6-1 3.3-.1 3.2-.2 3 2-.2 2.1-.4 2.3-2.7 2.2-3.6-.2-5.4 1-5.6 3.9l-.1 2 .6-.4c1.3-.8 2.6-1.9 3.3-3l.8-1h2c2.7 0 3-.2 3.3-2.3.3-1.5.3-4.2 0-4.5l-1.2-.1c-1 0-1-.1-1-1-.2-2.6-3.6-8.9-5-8.9L23 2C20 0 15-.6 11.7.6M19.8 2c4.3 1.2 7.7 5 8.3 9.3v1.1c-.2 0-.3-.2-.3-.5-.3-4-4-8.4-7.5-9.3a13.4 13.4 0 0 0-8.7.2c-2-.5-6.8 4.9-7.2 8.2L4 12.4c-.8.4.7-4.3 1.9-6.1C8.3 2.6 14.7.6 19.9 2m-6 1.7c-3.3.8-6 3-7.3 5.8C5.4 12 5.6 13 7 11c1.8-2.6 5.4-2.6 6.6.1.3.7.4 2 .5 7.6V26c.1.5 3.2.6 3.6 0 .2-.1.3-2.8.3-6.7 0-7.1 0-8 .9-8.8 1.8-2 4.7-1.7 6.3.8 1.2 2 1.3-.2.1-2.3-2.5-4.2-7.2-6.4-11.5-5.3m-2 7.3c2.6 1.7.1 5.8-2.7 4.4-.9-.5-1.3-1.2-1.3-2.4 0-2.2 2.2-3.3 4-2m11.7.2c1.9 1.7.2 5-2.3 4.4-2.1-.5-2.8-3-1.1-4.4 1.1-1 2.2-1 3.4 0M2.8 14.4c-.6.1-.6.2-.5 1.5.2 1.8.1 1.7 2.4 1.7 5-.1 5.9 1.3 6 8.8l.1 5.4c.2.3 10.3.2 10.4-.1 0-.2.2-2.7.2-5.7l.2-5.7c.1-.4 2-2.3 2.2-2.2.1.1.4 0 .7-.1.3-.2 1.5-.3 2.6-.4 2.6 0 2.3.1 2.6-1.6l.1-1.5-1.4-.1c-1.9-.3-2.5 0-3.8 1.2a4 4 0 0 1-2.1 1.2c-1.7.3-2 .2-3-.5-1.1-1.1-1.2-1-1.2 5s.3 5.5-2.3 5.5c-2.6 0-2.3.5-2.3-5.4 0-5.2 0-6-.6-5.6-1.5 1.3-1.5 1.3-2.8 1.1A5.4 5.4 0 0 1 7 15.1c-.5-.6-2.5-1-4.1-.7"/>
</svg>
