<svg xmlns="http://www.w3.org/2000/svg" viewBox="0 0 2000 2000">
  <path fill="#b4682c" fill-rule="evenodd" d="M728.7 37.1C419.4 141.2 165.2 449.3 154 733.6c-2.3 59-3.7 60.2-63.8 60.2-81.2 0-99 43.1-86.7 210.3 14.9 200.6 31.4 217.6 208.9 216 126-1.2 127.5-.8 167.1 51.7 175 231.7 262.9 265.5 250 96.4-9.3-124.3-50-193.8-113-193.8-11.3 0-43.3-11.3-71.2-25.2-37-18.4-81-23.3-162-18.4-148 9.2-160.2-1.3-163.6-139.5L117.1 881l87.5-7.9c132.8-12 224.5 2.6 245 39 138.9 245.8 487 80.2 381.9-181.6-71-177-325.1-171.8-390.3 7.9-31.5 86.6-117.4 83.3-105-4C360.3 561.7 500 358.6 643.4 287a960.6 960.6 0 0 0 86.6-50c68.7-45.9 278.7-65.4 421.5-39.2 240 44 512.4 339.6 516.6 560.3 1.2 60.3-89 50.5-102.6-11.2C1520.9 544.4 1215 557 1159 763.7c-64.2 237.8 239.6 370.5 379.7 165.9 36-52.7 40.4-54.3 159.2-59.3 207.3-8.7 199.8-13.4 187.5 118.8-12.7 136-25 146-169 139.8-222.5-9.8-332.2 67.6-345.6 243.6l-9.3 122.3 38.3-21.4c82.2-46.2 160.4-115 206.4-181.7l48.2-69.7H1782c170.6 0 182-7.9 205.8-140.6 17.4-96.7 15.7-260.7-2.8-279.2-3.8-3.7-36-8.4-71.5-10.5-62.1-3.6-64.8-6-66.8-59-6.2-163.8-222.8-557.3-306.9-557.3-7.5 0-52.5-24.8-100.1-55.1C1252.7 1 943.3-35.2 728.7 37m510.4 89.8c266.1 73.3 477.4 309 517.8 577.6 6.2 41.2 4.8 73.5-3.2 73.5s-15.5-16-17-35.7c-17.1-242.9-244.4-522.4-469.5-577.5-207.8-50.8-335.6-52.8-486-7.2-28.5 8.7-53.6 15.4-55.6 14.9-127.2-29.2-424 307.9-451.2 512.5-5.7 42.8-17.5 82.2-26.3 87.7-47.9 29.4 45-269.3 118.2-380.4C518.8 161.1 920.4 39 1239.1 127m-374 103.4C662.6 282.5 494 416.6 411 591.5c-75.9 159.8-57.5 229.8 27.4 104.4 112.8-166.5 333.7-164.5 411 3.8 21.4 46.7 26.8 129.2 30.9 475.7 2.7 230.6 5.8 431.7 6.9 447 2.4 34.4 194 41.3 220.7 7.9 9.6-12 16-181 16.2-426.2.4-441.6 5.9-494.6 57.2-550.5C1296.5 527.8 1477.5 552 1573 706c76 122.5 84.5-14.5 8.8-142.2-156-263-453.4-401.5-716.8-333.6m-125 456.3c161.3 110.1 4.3 363.2-169.7 273.6-57.1-29.4-82.5-74-82.5-144.9C488 678 625 608 740 686.6m725.7 10.8c119.6 106.4 15.1 318.7-138 280.5-135.8-34-177.6-194.2-73.2-281 73.5-61.1 142.2-61 211.2.5m-1291 203.3c-36 6.5-37.5 11.5-28.9 94.4 11.5 110.7 5.4 106.5 150.7 103.7 307.1-5.8 365 80.5 368.7 549.5 1.4 178.5 6.2 330.4 10.7 337.6 14 22.7 642.7 16.2 650.8-6.8 3.8-10.9 10-169.6 13.9-352.8 3.8-183.1 8.8-343 11.1-355.4 5-26.9 127.5-148 138.5-137 4.3 4.2 22.6-.3 40.8-10 18.1-9.6 92.8-19.2 165.9-21.4 157-4.6 143.5 4.5 156.5-105.2l10.4-88.3-87.3-10.9c-117.7-14.7-156.1-2.3-239.2 77-48.8 46.6-90 70.7-132.7 77.7-103.4 17-125.7 12.5-181.5-37-75.6-67.3-78.8-54.2-76.6 310.8 2.4 378 14.4 349.4-145.7 346-162.1-3.5-147 31.7-144.7-336 2-325.5-3.5-378.8-36.2-351.5-96.4 80.7-97.4 81-173.8 72.9-83-8.9-169.3-54.6-216.9-114.9-31.1-39.4-156.3-60.3-254.5-42.4"/>
</svg>
