<svg xmlns="http://www.w3.org/2000/svg" fill="none" viewBox="0 0 32 32">
  <path fill="#000" fill-rule="evenodd" d="M0 16v16h32V0H0ZM.8.8V19h2.4v9.8h1.2v1H2v-9.6H.8v11h15.8v-3.8H18v-2.4h-2.5V30h-3.6v-1.2h2.4v-3.7h-2.4V24h6v-1.3h-1.2v-1.2h1.2v-1.2H19v7.2h2.5V28.8h3.7V27.5h1.1V28.8h2.5V27.5h-1.2v-4.8H30V24h-1.2v2.5H30V30h-9.7v-1.2h-2.5v2.4h13.5V8.1H30v2.4h-1.2V6.9h2.5V.8H14.2v2.4h1.2V2h1.2v3.7h1.2v1.1h-2.4V4.4h-1.2v1.2h-2.4V4.5H13V.7h-2.5V2H9.3V.8H.8zM2 6.3v4.2h1.2V3.2h3.7v1.2h3.6V3.2H8V2H2ZM18 2.6v.6h3.6v3.6H24v2.5h-1.2V8.1h-1.2v2.4h3.6V3.2h3.7v2.4H30V2h-6v3.7h-1.3V2h-4.8Zm-13.4 6V13h8.4v-1.1H5.6V4.5H4.5Zm14.6 0V13h8.4V4.5h-1.1V11.8h-6.2V4.5h-1.1ZM6.9 8.2v2.4h2.4V9.3H8V6.8h1.2V8h1.2v2.5h6.1v1.3h-2.4v2.4H13v1.2h3.6v-1.2h-1.2v-1.3h2.4V9.3h-1.2V8.1h-1.2v1.2h-3.7V7h-1.2V5.7H6.9Zm6-.6V8h1.2V7H13ZM2 13.5v1.9h4.8v-1.2H3.2v-2.4H2Zm26.8-.5v1.2h-1.2V19h1.2v1.3h-2.5v-6h-3.6v2.3h-1.2v-2.4h-3.7v2.4h-1.2v1.2h-1.2v-1.2h-3.7v-2.4H8v2.4H3.2v1.2h6v-2.4h1.3v2.4h3.7v3.7H6.9v1.2h2.4v2.4h1.2v-2.4h4.8V19h2.5v-1.2H19v-2.4h1.3v2.4h3.6v-2.4h1.2v6H30V18h-1.2v-2.5H30v-3.6h-1.2ZM4.4 23.3v4.2H13v-1.1H5.6v-6.2H13v-1.1H4.5Zm15.9-.6v3.6h1.2v-7.2h-1.2zm2.4-3v.5H24v-1.1h-1.2zm0 4.8v3H24v-6h-1.2zm2.5 0v1.8h1.1v-3.6h-1.1Zm-18.3 0v.6H8V24H7Zm-1.2 4.9v.6h4.8v-1.2H5.7Z" clip-rule="evenodd"/>
</svg>
