<svg xmlns="http://www.w3.org/2000/svg" fill="none" viewBox="0 0 2000 2000">
  <path fill="#b4682c" fill-rule="evenodd" d="M0 1000v1000h2000V0H0ZM47 48.6c-.5 1.4-.7 259-.4 572.6l.5 570.2 75.6.5 75.7.5.5 304.1.5 304.1 37.6.6 37.5.5v72H126.3l-.5-304-.5-304.2H47V1953h992l.5-115.7.5-115.8h76.2l-.5-75.6-.6-75.7H961l-.5 151.8-.5 151.8H735.5v-72l75.6-.6 75.7-.5v-230.5l-75.7-.5-75.6-.5v-72l189.9-.6 189.8-.5v-78.2l-37.5-.5-37.6-.6v-72l37.6-.5 37.5-.5.6-37.6.5-37.6h72v453h152.3l.5 39.5.6 39.6H1572l.6-39.6.5-39.6h72l.5 39.6.6 39.6h154.3l.5-40.6.6-40.6h-76.3v-298.6h148.3v72.1l-37.5.5-37.6.6v154.3l37.6.5 37.5.6v224.3h-605l-.6-37.5-.6-37.6h-154.3v154.3H1953V504h-78.2l-.5 75.7-.5 75.6h-72.1V431l75.7-.5 75.6-.5V47H884.8v154.3h78.1l.6-37.6.5-37.5h72l.6 113.7.5 113.7 37.6.6 37.5.5v72H964l-.5-75.6-.6-75.6h-78.1l-.6 37.5-.5 37.6H735.5v-72l37.5-.6 37.6-.5V47H656.3l-.5 37.6-.6 37.5h-72l-.5-37.5-.5-37.6-267.1-.5c-212.7-.4-267.3 0-268 2Zm79.3 342.2v264.5h72l.6-228 .5-227.9h230.5l.5 37.6.6 37.5h224.3v-72l-75.6-.6-75.7-.5-.5-37.6-.6-37.5H126.3Zm990-228.5v36l113.7.6 113.7.5.5 113.7.5 113.7 75.7.5 75.6.6v154.3h-78.2l-.5-37.6-.5-37.6h-72.1v148.3H1569l.5-228 .5-227.9h230.5l.5 75.6.6 75.7h72V126.3H1497l-.5 113.7-.5 113.7h-78.2l-.5-113.7-.5-113.7h-300.6ZM278.5 543.1v264.5h529v-72.1l-228-.5-227.9-.5-.5-228-.5-228h-72.1zm913.8 0v264.5h529v-529h-72l-.6 228-.5 227.9h-382.8l-.5-228-.5-228h-72.1zm-761.5-38v150.2h148.3v-72l-37.6-.6-37.6-.5V427.9h78.2l.5 37.5.6 37.5 37.5.6 37.5.5.5 75.6.6 75.7 189.8.5 189.9.5v78.2l-75.6.5-75.7.5-.5 75.6-.5 75.7-37.6.5-37.6.6v72h224.5v-72l-37.6-.6-37.6-.5v-78.2l75.7-.5 75.6-.5V583.3l-37.6-.6-37.5-.5-.6-37.6-.5-37.6h-72l-.5 37.6-.6 37.6H732.5l-.6-75.6-.5-75.7-37.5-.5-37.6-.5-.5-37.6-.6-37.6H431zm380.7-38.2V503h72.2V431h-72.2ZM126.3 847.7v112.2h300.6v-72l-113.8-.6-113.7-.5-.5-75.7-.6-75.6h-72zM1801 811.1l-.5 75.7-37.6.5-37.5.6v300.4l37.5.5 37.6.6v78.1h-154.3l-.5-189.8-.5-190h-224.4l-.5 75.7-.6 75.7h-78.1l-.5-75.7-.6-75.6h-224.3l-.5 75.6-.6 75.7-37.5.5-37.5.6-.6 37.5-.5 37.5h-78.2l-.5-37.5-.6-37.6-113.7-.5-113.6-.5-.6-75.7-.5-75.6H507.1l-.6 75.6-.5 75.7-151.8.5-151.8.5v72.1h376.7l.5-75.6.6-75.7h78.1l.5 75.7.6 75.6 113.7.5 113.7.5v230.5l-228 .5-228 .5v72l75.7.6 75.7.5.5 75.7.5 75.6h72l.6-75.6.5-75.7 151.8-.5 151.8-.5.5-113.7.5-113.7 75.6-.6 75.6-.5.6-37.5.5-37.6 37.6-.5 37.5-.6.5-75.6.6-75.6h78.1l.6 75.7.5 75.6h224.3l.6-75.6.5-75.7h78.1l.6 189.9.5 189.9h300.5v-224.4l-37.5-.5-37.6-.6V961l37.6-.5 37.5-.6V735.5h-72zM278.1 1456l-.5 263.5h531l-.6-35-.6-35-227.8-.6-227.9-.5v-382.8l228-.5 228-.5v-72.1H278.5Zm990.4-37v226.4h72.2v-453h-72.2zm152.3-190.4v36h72.2v-72.1h-72.2zm-.4 303.6-.6 187.3h74.2l-.5-187.3-.5-187.4h-72.1zm152.8 1v112.2h72v-224.5h-72zm-1142.3 0v36H503V1497H431zm-76.2 304.6v36h300.6v-72.1H354.7Z" clip-rule="evenodd"/>
</svg>
