<svg xmlns="http://www.w3.org/2000/svg" version="1.0" viewBox="0 0 2000 2000">
  <path d="M581.2.7c-180.5 2-286.2 15-360.9 43.8a292.6 286.6 0 0 0-102.7 63.4c-63.2 60.4-93.8 137.8-107.3 271C1.1 470 0 536.2 0 999.9c0 422.3 1 502.1 7 584.3 8 108.2 24.8 179.5 55.2 235.7a268.1 262.6 0 0 0 48.3 65c61 61.7 139.8 91.9 275.2 105.1 96.3 9.6 164.5 10.6 668.7 9.8 392.6-.5 425.3-.9 494.3-4.6 170.7-9.4 264.9-38.3 332.3-101.7 72-67.7 103-158 113.4-329.3 4.5-74 4.8-103 5.4-501 .8-511-.4-589.4-10-684.3-13.4-133-44.3-211.2-107.2-270.9-66.2-62.7-153.3-91-312.8-101.8C1488.4.5 1413.2-.2 989.2 0Zm868.5 119.2c124.1 2.9 192.7 9.5 249.7 23.8 46.9 11.7 78 27.9 103.2 53.6 31 31.7 48.3 72.5 59.6 139.6 9.1 54 13.2 110.4 15.4 214.6 1.6 75.7 1.6 821.3 0 897-3 145.5-11.4 220.4-30.7 278-11 32.9-23.7 55-43.2 74.9-49.6 51.2-124.6 70-310.6 77.7-56 2.4-929.6 2.4-985.4 0-138.8-5.8-208.6-17-260.6-41.6-19.9-9.3-34.8-20-49.5-34.9-31-31.7-48.3-72.1-59.7-139.6-8.9-53.5-13-109.7-15.3-212.6a84889.3 83145.5 0 0 1 0-900.8c3.8-170.1 15.3-251.3 44-309a174.6 171 0 0 1 79.3-78c54-26.2 143-39 296.3-42.6 61.6-1.5 847.2-1.5 907.5-.1z"/>
  <path d="M573.4 1000v500.4h186.5l.2-356 .4-355.7 235 355.8 235 355.8 98.1.1h98V499.6h-185.2l-.3 352.2-.3 352.1-231.2-352.1-231.2-352.2h-205Z"/>
</svg>
