<svg xmlns="http://www.w3.org/2000/svg" version="1.0" viewBox="0 0 32 32">
  <path fill="#b4682c" d="M9.3 0C6.4 0 4.7.3 3.5.7a4.7 4.6 0 0 0-1.6 1C.9 2.7.4 4 .2 6.1 0 7.5 0 8.6 0 16l.1 9.3c.1 1.8.4 3 .9 3.8a4.3 4.2 0 0 0 .8 1c1 1 2.2 1.5 4.4 1.7 1.5.2 2.6.2 10.7.2h7.9c2.7-.2 4.2-.7 5.3-1.7 1.1-1 1.6-2.5 1.8-5.3l.1-8c0-8.2 0-9.4-.2-11-.2-2-.7-3.3-1.7-4.3S27.7.3 25.1.1L15.8 0zm13.9 2c2 0 3 0 4 .3.7.2 1.2.4 1.6.9.5.5.8 1.1 1 2.2l.2 3.4v14.4c0 2.3-.1 3.5-.4 4.4a3 3 0 0 1-.7 1.2c-.8.8-2 1.1-5 1.3H8a11 11 0 0 1-4.1-.7c-.4-.1-.6-.3-.8-.6-.5-.5-.8-1.1-1-2.2L2 23.2A1358.2 1330.3 0 0 1 2 8.8c0-2.7.2-4 .7-5a2.8 2.7 0 0 1 1.2-1.2c.9-.4 2.3-.6 4.8-.7h14.5z"/>
  <path fill="#b4682c" d="M9.2 16v8h3V12.6l3.7 5.7 3.8 5.7h3.1V8h-3v11.3l-3.6-5.7L12.5 8H9.2Z"/>
</svg>
